<svg width="600" height="600" viewBox="0 0 600 600" fill="none" xmlns="http://www.w3.org/2000/svg">
<mask id="mask0_204_107" style="mask-type:luminance" maskUnits="userSpaceOnUse" x="0" y="0" width="600" height="600">
<path d="M600 0H0V600H600V0Z" fill="white"/>
</mask>
<g mask="url(#mask0_204_107)">
<path d="M409.65 382.68C431.47 379.536 451.708 394.677 454.852 416.497C457.996 438.317 442.855 458.554 421.035 461.697C399.215 464.841 378.978 449.702 375.834 427.882C372.69 406.063 387.83 385.824 409.65 382.68Z" fill="#2E3542"/>
<path d="M412.298 401.055C423.97 399.374 434.794 407.472 436.476 419.144C438.158 430.816 430.06 441.64 418.388 443.322C406.717 445.004 395.891 436.906 394.209 425.234C392.528 413.562 400.627 402.737 412.298 401.055Z" fill="white"/>
<path d="M419.368 450.125C408.921 451.631 398.986 447.208 392.969 439.405" stroke="white" stroke-width="0.3" stroke-linecap="round" stroke-linejoin="round"/>
<path d="M443.281 418.163C444.985 429.992 439.09 441.164 429.292 446.735" stroke="white" stroke-width="0.3" stroke-linecap="round" stroke-linejoin="round"/>
<path d="M387.407 426.213C385.184 410.784 395.889 396.475 411.319 394.252C419.765 393.035 427.874 395.692 433.85 400.877" stroke="white" stroke-width="0.3" stroke-linecap="round" stroke-linejoin="round"/>
<path d="M164.034 427.881C160.89 406.061 176.031 385.824 197.851 382.68C219.671 379.536 239.908 394.676 243.052 416.496C246.195 438.316 231.056 458.553 209.237 461.697C187.417 464.841 167.178 449.701 164.034 427.881Z" fill="#2E3542"/>
<path d="M182.409 425.234C180.728 413.562 188.826 402.737 200.498 401.055C212.17 399.374 222.994 407.472 224.676 419.144C226.358 430.814 218.26 441.64 206.588 443.322C194.916 445.004 184.091 436.904 182.409 425.234Z" fill="white"/>
<path d="M231.479 418.164C232.985 428.611 228.562 438.546 220.759 444.562" stroke="white" stroke-width="0.3" stroke-linecap="round" stroke-linejoin="round"/>
<path d="M199.517 394.251C211.346 392.547 222.518 398.442 228.089 408.24" stroke="white" stroke-width="0.3" stroke-linecap="round" stroke-linejoin="round"/>
<path d="M207.567 450.125C192.138 452.348 177.829 441.643 175.606 426.213C174.389 417.767 177.046 409.658 182.231 403.681" stroke="#6943BA" stroke-width="0.3" stroke-linecap="round" stroke-linejoin="round"/>
<path d="M417.265 425.833C415.176 426.689 412.788 425.689 411.932 423.6L398.57 390.975L406.138 387.877L419.498 420.501C420.354 422.591 419.354 424.977 417.265 425.833Z" fill="#6943BA"/>
<path d="M417.265 425.833C415.176 426.689 412.788 425.689 411.932 423.6L398.57 390.975L406.138 387.877L419.498 420.501C420.354 422.591 419.354 424.977 417.265 425.833Z" stroke="#2E3542" stroke-width="0.6588" stroke-linecap="round" stroke-linejoin="round"/>
<path d="M322.613 203.243C310.067 187.88 316.165 160.03 328.354 154.197C340.541 148.364 359.837 149.407 365.422 165.543L364.107 183.759L370.261 194.098C370.998 195.334 370.445 196.934 369.106 197.454L365.703 198.773C365.703 198.773 364.212 217.87 359.745 220.491C356.448 222.423 344.636 220.479 333.626 213.157L326.337 223.464L310.958 210.867L322.613 203.243Z" fill="white"/>
<path d="M322.613 203.243C310.067 187.88 316.165 160.03 328.354 154.197C340.541 148.364 359.837 149.407 365.422 165.543L364.107 183.759L370.261 194.098C370.998 195.334 370.445 196.934 369.106 197.454L365.703 198.773C365.703 198.773 364.212 217.87 359.745 220.491C356.448 222.423 344.636 220.479 333.626 213.157L326.337 223.464L310.958 210.867L322.613 203.243Z" stroke="#2E3542" stroke-width="0.6588" stroke-linecap="round" stroke-linejoin="round"/>
<path d="M157.162 390.359L142.65 427.409C142.65 427.409 145.358 428.648 149.909 423.302C160.958 410.322 161.286 398.495 173.785 394.021L157.162 390.359Z" fill="#6943BA"/>
<path d="M424.901 372.208C431.248 373.351 437.87 375.966 443.678 381.162C445.84 383.094 444.631 386.692 441.74 386.916C432.156 387.659 415.217 390.113 407.868 398.215C397.326 409.836 385.097 434.381 365.096 430.327C365.096 430.327 371.24 408.565 384.733 387.335C392.951 374.407 409.825 369.49 424.901 372.208Z" fill="#6943BA"/>
<path d="M387.186 273.96C390.119 279.042 396.042 292.114 386.377 301.959L385.874 274.331C385.861 273.604 386.822 273.33 387.186 273.96Z" fill="white"/>
<path d="M387.186 273.96C390.119 279.042 396.042 292.114 386.377 301.959L385.874 274.331C385.861 273.604 386.822 273.33 387.186 273.96Z" stroke="#2E3542" stroke-width="0.6588" stroke-linecap="round" stroke-linejoin="round"/>
<path d="M368.667 302.028C368.667 302.028 396.505 332.298 404.613 347.704C406.566 351.412 408.095 354.572 409.292 357.234C411.966 363.182 409.771 370.223 404.124 373.484C395.23 378.619 382.566 388.657 377.857 405.812C370.29 433.38 354.898 436.082 344.628 436.894C338.951 437.342 316.508 437.294 297.568 437.162C278.924 437.033 260.452 433.618 242.989 427.085L157.398 395.06C153.025 393.425 150.896 388.432 152.82 384.176C157.206 374.472 167.89 358.621 192.45 351.217C229.207 340.136 300.829 351.217 300.829 351.217V353.674C300.829 358.469 298.429 362.953 294.415 365.575C290.081 368.407 285.066 372.718 284.614 377.704C284.116 383.182 282.802 395.49 284.429 407.24C285.988 418.489 295.555 426.894 306.912 426.894H345.154C345.154 426.894 360.83 429.326 371.371 400.406C381.911 371.488 379.748 350.947 373.262 339.596C366.776 328.244 355.694 303.379 368.667 302.028Z" fill="#6943BA"/>
<path d="M246.451 321.75C240.966 320.67 235.808 324.655 235.411 330.232C234.923 337.105 235.958 345.677 242.926 350.013C255.659 357.935 300.728 355.343 300.728 355.343C300.728 355.343 311.682 350.089 305.176 340.431C300.247 333.115 263.832 325.174 246.451 321.75Z" fill="white"/>
<path d="M246.451 321.75C240.966 320.67 235.808 324.655 235.411 330.232C234.923 337.105 235.958 345.677 242.926 350.013C255.659 357.935 300.728 355.343 300.728 355.343C300.728 355.343 311.682 350.089 305.176 340.431C300.247 333.115 263.832 325.174 246.451 321.75Z" stroke="#2E3542" stroke-width="0.6588" stroke-linecap="round" stroke-linejoin="round"/>
<path d="M387.4 273.928V302.002C387.4 303.05 386.55 303.9 385.502 303.9H363.076C363.076 303.9 352.331 290.394 360.965 281.737C368.099 274.582 377.724 272.63 383.97 271.192C385.726 270.787 387.4 272.125 387.4 273.928Z" fill="#6943BA"/>
<path d="M222.419 344.313H151.441C146.718 344.313 142.891 340.483 142.891 335.76V283.989H230.969V335.76C230.969 340.483 227.142 344.313 222.419 344.313Z" fill="#6943BA"/>
<path d="M225.93 277.387H147.929C144.35 277.387 141.45 280.29 141.45 283.868V286.692C141.45 287.411 142.032 287.993 142.751 287.993H231.109C231.827 287.993 232.41 287.411 232.41 286.692V283.868C232.41 280.29 229.508 277.387 225.93 277.387Z" fill="#2E3542"/>
<path d="M167.872 349.948H230.215C231.427 349.948 232.41 348.966 232.41 347.754V346.506C232.41 345.294 231.427 344.312 230.215 344.312H167.872C166.316 344.312 165.054 345.572 165.054 347.129C165.054 348.685 166.316 349.948 167.872 349.948Z" fill="#6943BA"/>
<path d="M312.089 399.283C312.089 399.283 309.13 409.524 307.345 414.505C313.265 422.117 318.89 417.481 318.89 417.481L325.53 397.704L312.089 399.283Z" fill="white"/>
<path d="M312.089 399.283C312.089 399.283 309.13 409.524 307.345 414.505C313.265 422.117 318.89 417.481 318.89 417.481L325.53 397.704L312.089 399.283Z" stroke="#2E3542" stroke-width="0.6588" stroke-linecap="round" stroke-linejoin="round"/>
<path d="M243.458 312.098C243.458 312.098 241.26 330.19 262.199 335.566C283.136 340.942 328.46 346.327 328.46 346.327L309.881 401.971L324.877 404.906L349.396 342.094C351.24 337.369 348.985 332.033 344.311 330.062L288.659 303.624L243.458 312.098Z" fill="#6943BA"/>
<path d="M307.643 410.906C307.448 410.388 306.751 410.308 306.45 410.773C306.032 411.42 305.584 412.552 305.387 414.524C305.117 417.233 304.89 421.642 304.765 424.399C304.703 425.756 305.789 426.887 307.146 426.88L345.902 426.642C346.655 426.637 347.234 425.98 347.144 425.232C346.926 423.436 345.71 421.918 344.004 421.314L325.985 414.94L324.266 411.758C323.96 411.191 323.395 410.809 322.756 410.735L322.142 410.665C322.142 410.665 321.16 414.002 319.177 414.732C317.294 415.426 309.823 416.706 307.643 410.906Z" fill="#6943BA"/>
<path d="M315.411 206.203C315.411 206.203 299.677 206.477 283.105 220.104C266.534 233.732 241.077 257.944 235.91 298.318C234.472 310.023 232.772 318.722 232.772 318.722C232.772 318.722 245.612 339.981 294.717 304.938C294.717 304.938 293.209 294.897 299.158 284.122C305.108 273.346 325.143 244.185 324.879 228.982C324.614 213.779 315.411 206.203 315.411 206.203Z" fill="#6943BA"/>
<path d="M317.462 202.378L312.902 206.432C312.902 206.432 319.96 218.419 322.065 234.466L329.53 220.661C329.53 220.661 318.954 210.635 317.462 202.378Z" fill="#6943BA"/>
<path d="M357.625 293.562C355.2 292.791 344.147 293.953 344.147 293.953C335.468 289.061 313.744 277.199 304.988 275.983L308.755 253.008H288.249C288.249 253.008 286.595 265.432 285.487 272.243C284.378 279.057 284.273 284.784 284.273 284.784C284.273 284.784 283.903 287.001 298.867 290.695C313.831 294.39 341.118 301.105 341.118 301.105C346.871 309.96 349.938 301.233 353.905 301.343C357.875 301.453 354.869 306.349 353.548 306.9C352.224 307.451 352.501 309.838 352.798 310.021C354.211 310.901 356.876 309.981 359.412 308.989C361.948 307.997 363.52 304.518 363.541 302.028C363.562 299.537 360.05 294.334 357.625 293.562Z" fill="white"/>
<path d="M357.625 293.562C355.2 292.791 344.147 293.953 344.147 293.953C335.468 289.061 313.744 277.199 304.988 275.983L308.755 253.008H288.249C288.249 253.008 286.595 265.432 285.487 272.243C284.378 279.057 284.273 284.784 284.273 284.784C284.273 284.784 283.903 287.001 298.867 290.695C313.831 294.39 341.118 301.105 341.118 301.105C346.871 309.96 349.938 301.233 353.905 301.343C357.875 301.453 354.869 306.349 353.548 306.9C352.224 307.451 352.501 309.838 352.798 310.021C354.211 310.901 356.876 309.981 359.412 308.989C361.948 307.997 363.52 304.518 363.541 302.028C363.562 299.537 360.05 294.334 357.625 293.562Z" stroke="#2E3542" stroke-width="0.6588" stroke-linecap="round" stroke-linejoin="round"/>
<path d="M358.232 304.255C358.232 307.086 355.937 309.382 353.106 309.382C350.274 309.382 347.977 307.086 347.977 304.255C347.977 301.423 350.274 299.127 353.106 299.127C355.937 299.127 358.232 301.423 358.232 304.255Z" fill="#6943BA"/>
<path d="M365.077 158.342C365.077 158.342 343.309 160.478 340.361 171.992C337.415 183.507 336.308 207.203 325.016 207.72C313.722 208.239 286.595 190.973 293.87 160.224C301.144 129.475 332.467 132.646 342.325 135.375C360.499 140.408 365.077 158.342 365.077 158.342Z" fill="#6943BA"/>
<path d="M363.545 154.219C363.545 154.219 335.059 161.748 333.637 164.004C332.213 166.259 333.982 171.205 333.982 171.205L375.694 170.09L367.561 162.358L363.545 154.219Z" fill="#6943BA"/>
<path d="M326.453 195.654C326.568 198.054 324.715 200.092 322.317 200.207C319.917 200.322 317.878 198.47 317.763 196.071C317.648 193.671 319.5 191.632 321.9 191.517C324.299 191.402 326.338 193.255 326.453 195.654Z" fill="#6943BA"/>
<path d="M301.68 218.737C301.68 218.737 292.686 222.167 289.584 235.03C286.482 247.894 283.938 257.627 283.938 257.627L308.48 263.896C308.48 263.896 318.363 232.743 317.734 228.319C317.104 223.896 315.104 215.108 301.68 218.737Z" fill="#6943BA"/>
<path d="M118.2 462.6H480.6" stroke="#2F3542" stroke-width="0.6" stroke-dasharray="57.6 13.2"/>
<path d="M237.6 480.6H397.2" stroke="#2F3542" stroke-width="0.6" stroke-dasharray="37.2 31.2"/>
<path fill-rule="evenodd" clip-rule="evenodd" d="M186.353 333.529L180.848 328.105C181.171 327.963 181.495 327.82 181.79 327.677C186.583 325.37 188.958 322.009 189.703 319.147L189.169 319.005C189.829 318.607 191.235 317.695 192.458 316.456C193.617 315.282 194.453 313.846 194.829 313.152C194.858 313.099 194.913 313.067 194.973 313.067H199.991C200.328 313.067 200.61 312.782 200.61 312.44C200.61 312.099 200.328 311.814 199.991 311.814H175.001C174.664 311.814 174.383 312.099 174.383 312.44C174.383 312.782 174.664 313.067 175.001 313.067H180.313C180.359 313.067 180.402 313.086 180.433 313.12C181.078 313.834 182.51 315.703 182.648 316.314C182.802 316.955 182.802 317.012 182.844 317.325L181.79 317.041C181.537 317.981 180.525 319.092 178.304 320.174C177.376 320.614 176.271 321.005 174.973 321.296C174.482 321.406 173.974 321.219 173.66 320.821C168.336 314.075 168.82 304.24 175.114 298.043C181.93 291.321 193.076 291.321 199.878 298.028L199.893 298.043C206.71 304.751 206.695 315.73 199.893 322.452L188.64 333.53C188.003 334.157 186.99 334.157 186.353 333.529L186.353 333.529ZM190.569 313.066C190.717 313.066 190.791 313.25 190.683 313.353C189.913 314.091 188.329 315.103 186.723 315.103C185.107 315.103 184.048 314.107 183.449 313.336C183.365 313.227 183.442 313.067 183.58 313.067H190.569V313.066ZM188.905 299.143C194.748 299.834 199.289 304.838 199.372 310.919C199.373 311.011 199.298 311.088 199.207 311.088H187.496H175.786C175.695 311.088 175.619 311.011 175.621 310.919C175.703 304.824 180.258 299.821 186.115 299.143C186.389 299.111 186.597 298.878 186.597 298.598C186.597 298.214 186.133 297.829 186.007 297.573C185.866 297.331 186.021 296.989 186.316 296.989H187.511H188.705C189.001 296.989 189.155 297.331 189.014 297.573C188.888 297.829 188.424 298.214 188.424 298.598V298.599C188.424 298.879 188.631 299.111 188.905 299.144V299.143Z" fill="white"/>
<path d="M251.293 367.038C251.402 367.038 251.509 367.042 251.616 367.05H256V368.139C256 368.657 255.646 369.094 255.177 369.202C255.664 369.964 255.948 370.879 255.948 371.862C255.948 373.194 255.427 374.4 254.584 375.274C253.742 376.147 252.579 376.688 251.293 376.688C250.008 376.688 248.844 376.148 248.002 375.274C247.159 374.401 246.639 373.196 246.639 371.862C246.639 370.53 247.159 369.325 248.002 368.452C248.844 367.579 250.008 367.038 251.293 367.038ZM255.696 379.773C255.021 380.177 254.307 380.483 253.573 380.687C252.828 380.894 252.061 381 251.291 381C250.521 381 249.755 380.894 249.011 380.687C248.273 380.483 247.557 380.175 246.884 379.773L247.941 377.882C248.447 378.185 248.991 378.417 249.556 378.574C250.117 378.73 250.7 378.81 251.293 378.81C251.884 378.81 252.467 378.73 253.029 378.574C253.599 378.415 254.144 378.183 254.649 377.882L255.697 379.773H255.696ZM253.089 369.999C252.63 369.523 251.994 369.227 251.291 369.227C250.59 369.227 249.954 369.522 249.494 369.999C249.035 370.475 248.749 371.134 248.749 371.861C248.749 372.588 249.033 373.247 249.494 373.725C249.954 374.202 250.589 374.496 251.291 374.496C251.993 374.496 252.629 374.202 253.089 373.725C253.548 373.248 253.834 372.59 253.834 371.861C253.834 371.134 253.549 370.475 253.089 369.999Z" fill="white"/>
<path d="M241.166 367.077C243.013 367.077 244.523 368.573 244.63 370.461H244.636V376.687H242.534V370.748C242.534 370.136 241.573 369.036 240.456 369.036C239.601 369.036 238.409 369.733 238.409 370.937V376.687H236.308V367.038H237.358C237.936 367.038 238.409 367.529 238.409 368.127V368.488C239.044 367.63 240.042 367.077 241.166 367.077Z" fill="white"/>
<path d="M234.184 376.687V367.038H232.083V376.687H234.184ZM233.134 363.178C233.863 363.178 234.453 363.791 234.453 364.547C234.453 365.302 233.862 365.915 233.134 365.915C232.404 365.915 231.813 365.302 231.813 364.547C231.813 363.791 232.404 363.178 233.134 363.178Z" fill="white"/>
<path d="M206.588 367.038C207.227 367.038 207.837 367.172 208.391 367.414H208.393L208.401 367.418L208.445 367.438L208.453 367.442L208.497 367.462L208.504 367.466L208.548 367.488L208.555 367.491C209.034 367.723 209.483 368.043 209.879 368.453C209.906 368.481 209.931 368.508 209.957 368.536H209.958C210.138 368.732 210.3 368.94 210.443 369.157L210.442 369.159C210.947 369.93 211.243 370.862 211.243 371.865C211.243 372.176 211.214 372.48 211.161 372.776H211.16H208.974H207.796H204.204L204.209 372.793L204.211 372.796L204.215 372.81L204.221 372.826L204.228 372.843L204.233 372.855L204.234 372.859L204.241 372.876L204.244 372.885L204.248 372.893L204.255 372.909L204.257 372.915L204.262 372.926L204.263 372.929L204.277 372.96L204.284 372.976L204.285 372.977L204.292 372.992L204.298 373.004L204.3 373.009L204.307 373.025L204.315 373.04L204.323 373.056C204.362 373.135 204.404 373.214 204.451 373.288H204.452L204.461 373.304L204.47 373.318L204.48 373.333L204.489 373.347L204.498 373.361C204.514 373.385 204.531 373.41 204.548 373.434L204.558 373.448L204.56 373.449L204.569 373.461L204.579 373.476L204.59 373.49L204.599 373.502L204.6 373.504L204.611 373.518L204.619 373.529L204.622 373.532L204.633 373.545L204.64 373.554L204.644 373.559L204.655 373.572L204.66 373.579L204.666 373.585L204.678 373.598L204.683 373.604L204.689 373.611L204.701 373.625L204.705 373.63L204.713 373.638L204.724 373.651L204.727 373.655L204.736 373.664L204.747 373.678L204.75 373.68L204.759 373.691L204.771 373.704L204.772 373.705L204.782 373.717L204.794 373.729L204.816 373.751L204.817 373.753L204.838 373.774L204.841 373.777L204.86 373.795L204.865 373.8L204.882 373.817L204.889 373.823L204.905 373.837L204.913 373.845L204.928 373.858L204.952 373.878L204.962 373.888L204.975 373.899C205.139 374.039 205.322 374.16 205.518 374.255L205.522 374.257L205.545 374.268L205.57 374.279L205.573 374.281L205.578 374.283L205.602 374.294L205.607 374.297L205.631 374.306L205.636 374.309L205.66 374.318L205.665 374.32L205.689 374.329L205.694 374.332L205.719 374.341L205.724 374.344L205.749 374.353L205.754 374.354L205.81 374.374L205.813 374.375L205.84 374.383L205.843 374.384L205.87 374.393L205.872 374.394C206.029 374.442 206.19 374.475 206.353 374.49L206.369 374.493L206.384 374.494L206.401 374.495L206.414 374.496L206.434 374.497L206.444 374.499L206.466 374.5L206.475 374.501L206.499 374.502L206.531 374.504H206.532H206.537L206.565 374.505H206.567H206.597H206.627H206.63L206.658 374.504H206.662L206.688 374.502H206.695L206.718 374.501L206.727 374.5L206.748 374.499L206.758 374.497L206.778 374.496L206.791 374.495L206.808 374.494C207.061 374.472 207.313 374.411 207.552 374.31L207.556 374.308L207.581 374.298L207.585 374.296L207.61 374.285L207.614 374.282L207.639 374.271L207.643 374.269L207.668 374.258L207.672 374.256L207.697 374.244L207.7 374.241L207.724 374.229L207.728 374.227L207.752 374.214L207.756 374.213L207.81 374.183L207.836 374.168L207.837 374.167C207.873 374.146 207.908 374.125 207.943 374.102L207.944 374.101C208.013 374.056 208.079 374.008 208.144 373.957L208.152 373.949L208.168 373.937L208.178 373.929H210.807C210.613 374.352 210.358 374.751 210.04 375.113L210.036 375.118L210.031 375.123L210.027 375.127L210.022 375.132L210.017 375.137L210.009 375.147L210.005 375.151L210 375.156L209.995 375.161L209.991 375.166L209.986 375.171L209.981 375.175L209.964 375.195L209.959 375.2L209.955 375.204L209.95 375.209L209.945 375.214L209.941 375.219L209.936 375.224L209.931 375.228L209.929 375.231L209.927 375.233L209.922 375.238L209.918 375.243L209.913 375.248L209.908 375.252L209.904 375.257L209.899 375.262L209.894 375.267L209.89 375.272L209.885 375.276L209.846 375.317L209.806 375.357L209.8 375.363L209.766 375.397C209.4 375.75 208.993 376.03 208.562 376.238L208.555 376.242L208.511 376.262L208.504 376.266L208.46 376.286L208.427 376.301L208.408 376.309L208.399 376.313L208.347 376.336L208.302 376.354L208.294 376.357C207.767 376.571 207.195 376.689 206.595 376.689C205.998 376.689 205.427 376.572 204.902 376.36L204.896 376.357L204.888 376.354L204.843 376.336L204.834 376.332L204.79 376.313L204.782 376.309L204.778 376.308C204.242 376.072 203.74 375.728 203.302 375.275C202.878 374.835 202.553 374.333 202.327 373.795L202.324 373.787L202.305 373.741L202.29 373.704L202.283 373.686L202.28 373.678C202.059 373.117 201.939 372.504 201.939 371.862C201.939 371.22 202.059 370.607 202.28 370.047L202.283 370.039L202.302 369.992L202.305 369.985L202.324 369.938L202.327 369.93C202.553 369.393 202.878 368.889 203.302 368.451C203.712 368.025 204.179 367.697 204.678 367.464L204.685 367.46C204.715 367.446 204.746 367.431 204.778 367.418L204.782 367.416L204.79 367.412L204.834 367.393L204.843 367.389L204.888 367.371L204.896 367.367L204.902 367.365C205.426 367.152 205.998 367.036 206.595 367.036L206.588 367.038ZM207.458 369.386C207.429 369.375 207.4 369.364 207.371 369.355L207.344 369.346L207.341 369.345C207.164 369.288 206.983 369.252 206.801 369.237L206.784 369.236L206.771 369.234L206.751 369.233L206.741 369.232L206.72 369.231L206.711 369.23L206.688 369.228L206.656 369.227H206.655H206.651L206.623 369.226H206.62H206.59H206.56H206.558L206.53 369.227H206.525L206.5 369.228H206.493L206.47 369.23L206.46 369.231L206.438 369.232L206.428 369.233L206.408 369.234L206.395 369.236L206.378 369.237C206.186 369.254 205.994 369.293 205.809 369.355L205.805 369.356L205.749 369.375L205.745 369.376L205.719 369.386L205.715 369.387L205.689 369.397L205.685 369.398L205.66 369.408L205.656 369.41L205.631 369.42L205.627 369.422L205.602 369.432L205.598 369.434L205.573 369.445L205.569 369.447L205.544 369.458L205.54 369.46L205.516 369.471L205.512 369.474C205.316 369.569 205.134 369.688 204.969 369.829L204.956 369.84L204.946 369.85L204.923 369.87L204.908 369.884L204.899 369.891L204.883 369.906L204.876 369.912L204.859 369.929L204.854 369.934L204.836 369.952L204.832 369.956L204.811 369.976L204.81 369.977L204.788 369.999L204.765 370.023L204.764 370.024L204.752 370.037L204.743 370.048L204.741 370.051L204.729 370.064L204.721 370.072L204.717 370.076L204.706 370.089L204.699 370.096L204.694 370.102L204.683 370.116L204.678 370.122L204.672 370.129L204.66 370.142L204.657 370.147L204.65 370.156L204.638 370.171L204.636 370.173L204.627 370.184L204.616 370.199L204.615 370.2L204.605 370.213L204.596 370.225L204.594 370.226L204.584 370.241C204.545 370.292 204.507 370.346 204.473 370.401L204.466 370.411L204.463 370.415L204.454 370.431C204.426 370.476 204.398 370.522 204.373 370.57L204.368 370.58L204.365 370.586L204.357 370.601L204.332 370.649L204.324 370.665L204.316 370.681L204.31 370.694L204.309 370.697L204.301 370.714L204.296 370.724L204.293 370.731L204.285 370.748L204.282 370.754L204.278 370.765L204.271 370.782L204.27 370.784L204.263 370.798L204.257 370.813L204.256 370.815L204.249 370.832L204.244 370.843L204.242 370.849L204.235 370.866L204.233 370.873L204.229 370.883L204.222 370.899L204.221 370.902L204.215 370.916L204.209 370.932V370.933L204.199 370.962L204.197 370.968H208.977C208.953 370.897 208.925 370.827 208.895 370.76L208.89 370.749L208.889 370.747L208.883 370.734L208.882 370.732L208.876 370.72L208.874 370.715L208.87 370.708L208.867 370.7L208.865 370.695L208.859 370.683V370.682L208.853 370.67L208.852 370.667L208.847 370.658L208.844 370.652L208.84 370.645L208.836 370.635L208.834 370.631L208.827 370.618L208.822 370.606L208.819 370.602L208.815 370.593L208.811 370.586L208.808 370.58L208.802 370.57L208.787 370.542L208.784 370.538L208.78 370.529L208.775 370.522L208.766 370.506L208.765 370.505L208.758 370.493L208.757 370.492L208.75 370.481L208.747 370.476L208.743 370.468L208.729 370.445L208.728 370.443L208.721 370.431L208.72 370.429L208.713 370.419L208.709 370.414L208.704 370.407L208.7 370.399L208.696 370.394L208.689 370.385L208.688 370.384L208.68 370.372L208.679 370.37L208.659 370.34L208.656 370.336L208.649 370.326L208.648 370.324L208.64 370.312L208.631 370.301L208.629 370.297L208.623 370.289L208.619 370.283L208.608 370.268L208.606 370.265L208.598 370.254L208.59 370.242L208.589 370.239L208.582 370.23L208.578 370.225L208.572 370.219L208.566 370.212L208.563 370.208L208.555 370.199L208.554 370.197L208.544 370.187L208.543 370.185L208.535 370.175L208.533 370.171L208.526 370.162L208.521 370.156L208.517 370.152L208.51 370.143L208.507 370.141L208.498 370.13L208.476 370.104L208.47 370.096L208.464 370.09L208.45 370.075L208.441 370.064L208.432 370.053L208.43 370.051L208.421 370.042L208.411 370.031L208.405 370.025L208.401 370.021L208.393 370.012L208.39 370.01L208.38 369.999L208.358 369.977L208.355 369.976L208.308 369.929L208.29 369.912L208.283 369.906L208.267 369.891L208.259 369.884L208.244 369.87L208.235 369.862L208.221 369.85L208.209 369.84L208.198 369.829L208.185 369.819L208.174 369.809L208.161 369.797L208.151 369.789L208.136 369.777L208.128 369.769L208.111 369.756L208.104 369.75C208.047 369.706 207.989 369.665 207.927 369.625H207.926C207.857 369.581 207.786 369.539 207.712 369.501L207.708 369.499L207.684 369.487L207.656 369.474L207.651 369.471L207.627 369.46L207.622 369.458L207.598 369.447L207.593 369.445L207.569 369.434L207.564 369.432L207.54 369.422L207.535 369.42L207.511 369.41L207.506 369.408L207.477 369.397L207.453 369.387L207.448 369.385L207.458 369.386Z" fill="#FEFEFE"/>
<path d="M218.295 363.055C219.025 363.055 219.616 363.668 219.616 364.425C219.616 365.181 219.025 365.794 218.295 365.794C217.566 365.794 216.974 365.181 216.974 364.425C216.974 363.668 217.566 363.055 218.295 363.055Z" fill="#FEFEFE"/>
<path d="M219.346 376.687V367.038H217.245V376.687H219.346Z" fill="#FEFEFE"/>
<path d="M215.044 376.687V363L212.941 363.493V376.687H213.993H215.044Z" fill="#FEFEFE"/>
<path d="M200.288 376.687V372.311C200.301 372.163 200.308 372.014 200.308 371.862C200.308 371.711 200.301 371.562 200.288 371.414V363L198.187 363.493V367.815C197.459 367.323 196.589 367.038 195.654 367.038C194.369 367.038 193.206 367.579 192.364 368.452C191.521 369.325 191 370.532 191 371.864C191 373.196 191.521 374.401 192.364 375.275C193.206 376.148 194.369 376.688 195.654 376.688C196.604 376.688 197.488 376.393 198.224 375.886C198.347 376.346 198.755 376.688 199.238 376.688H200.288V376.687ZM198.187 371.642V372.082C198.136 372.722 197.864 373.297 197.452 373.724C196.992 374.201 196.357 374.496 195.654 374.496C194.952 374.496 194.317 374.202 193.856 373.724C193.397 373.247 193.112 372.59 193.112 371.861C193.112 371.134 193.396 370.475 193.856 369.998C194.317 369.521 194.951 369.226 195.654 369.226C196.356 369.226 196.991 369.521 197.452 369.998C197.864 370.426 198.136 371 198.187 371.64V371.642Z" fill="#FEFEFE"/>
<path d="M224.535 376.687L220.944 367.038H223.214L225.973 374.455L228.733 367.038H231.003L227.412 376.687H226.804H225.142H224.535Z" fill="#FEFEFE"/>
</g>
</svg>
