<svg width="154" height="154" viewBox="0 0 154 154" fill="none" xmlns="http://www.w3.org/2000/svg">
<path d="M125.423 0H28.3697C12.7015 0 0 12.7015 0 28.3697V125.423C0 141.091 12.7015 153.793 28.3697 153.793H125.423C141.091 153.793 153.793 141.091 153.793 125.423V28.3697C153.793 12.7015 141.091 0 125.423 0Z" fill="#6943BA"/>
<path fill-rule="evenodd" clip-rule="evenodd" d="M74.0624 125.736L60.4629 112.51C61.2617 112.163 62.0604 111.816 62.7898 111.468C74.6308 105.843 80.4996 97.6469 82.3407 90.6678L81.0208 90.3208C82.6522 89.3493 86.1248 87.1258 89.1471 84.105C92.0099 81.2422 94.0754 77.7416 95.0055 76.0496C95.0764 75.9197 95.2123 75.8414 95.3599 75.8414H107.759C108.592 75.8414 109.287 75.146 109.287 74.3133C109.287 73.4806 108.592 72.7852 107.759 72.7852H46.0175C45.1848 72.7852 44.4894 73.4806 44.4894 74.3133C44.4894 75.146 45.1848 75.8414 46.0175 75.8414H59.14C59.2537 75.8414 59.3615 75.8872 59.4368 75.9714C61.0299 77.7121 64.5689 82.2698 64.9085 83.7595C65.2909 85.3216 65.2909 85.4604 65.3942 86.2252L62.7898 85.5313C62.1652 87.8227 59.6641 90.5319 54.1777 93.1703C51.8848 94.2452 49.1549 95.1975 45.9466 95.9062C44.7344 96.1749 43.4795 95.7187 42.7044 94.7486C29.5493 78.2997 30.7467 54.318 46.2951 39.2067C63.1367 22.8168 90.6737 22.8168 107.48 39.1713L107.515 39.2067C124.357 55.5626 124.322 82.3348 107.515 98.7262L79.7141 125.739C78.1403 127.267 75.6362 127.267 74.0638 125.738L74.0624 125.736ZM84.48 75.84C84.8462 75.84 85.0278 76.2873 84.7621 76.5383C82.8589 78.3381 78.9449 80.8067 74.9777 80.8067C70.984 80.8067 68.3692 78.3765 66.8898 76.497C66.6802 76.2312 66.8721 75.8414 67.2117 75.8414H84.48V75.84ZM80.3682 41.8894C94.8048 43.574 106.024 55.7752 106.228 70.603C106.231 70.8289 106.046 71.015 105.82 71.015H76.8882H47.956C47.7301 71.015 47.5441 70.8289 47.5485 70.603C47.7523 55.7427 59.0042 43.5415 73.4747 41.8879C74.1524 41.8111 74.6662 41.2427 74.6662 40.5606C74.6662 39.623 73.5205 38.6855 73.2075 38.061C72.8605 37.4704 73.2429 36.6377 73.9723 36.6377H76.9237H79.875C80.6044 36.6377 80.9868 37.4704 80.6384 38.061C80.3269 38.6855 79.1797 39.623 79.1797 40.5606V40.5635C79.1797 41.2442 79.692 41.8111 80.3682 41.8908V41.8894Z" fill="white"/>
</svg>
