<svg width="24" height="24" viewBox="0 0 24 24" fill="none" xmlns="http://www.w3.org/2000/svg">
<path d="M12 15C13.6569 15 15 13.6569 15 12C15 10.3431 13.6569 9 12 9C10.3431 9 9 10.3431 9 12C9 13.6569 10.3431 15 12 15Z" stroke="white" stroke-width="1.5" stroke-linecap="round" stroke-linejoin="round"/>
<path d="M5.23022 16.7747L5.11801 18.5151C5.10996 18.6266 5.12659 18.7386 5.16673 18.843C5.20687 18.9473 5.26953 19.0416 5.35024 19.119C6.42896 20.1422 7.73431 20.8958 9.15978 21.3184C9.26716 21.3496 9.38011 21.3567 9.49057 21.3393C9.60102 21.3219 9.70628 21.2803 9.79885 21.2176L11.25 20.2502H12.75L14.2012 21.2176C14.2937 21.2804 14.399 21.3219 14.5094 21.3394C14.6199 21.3568 14.7328 21.3496 14.8402 21.3184C16.2657 20.8958 17.571 20.1422 18.6497 19.119C18.7305 19.0416 18.7931 18.9474 18.8333 18.843C18.8734 18.7386 18.8901 18.6267 18.882 18.5152L18.7698 16.7747L19.5198 15.4757L21.0832 14.7027C21.1838 14.6539 21.2724 14.5835 21.3428 14.4965C21.4131 14.4096 21.4634 14.3082 21.49 14.1996C21.8368 12.7538 21.8368 11.2465 21.49 9.80074C21.4633 9.69215 21.4131 9.59076 21.3427 9.50381C21.2724 9.41686 21.1838 9.34648 21.0832 9.29769L19.5199 8.52465L18.7699 7.22561L18.8821 5.48515C18.8901 5.37362 18.8735 5.26168 18.8333 5.1573C18.7932 5.05293 18.7306 4.95869 18.6498 4.8813C17.5711 3.85811 16.2658 3.10448 14.8403 2.68189C14.7329 2.65068 14.62 2.64353 14.5095 2.66095C14.3991 2.67837 14.2938 2.71993 14.2012 2.78267L12.7501 3.75004H11.2501L9.79892 2.78263C9.70636 2.71989 9.6011 2.67833 9.49064 2.6609C9.38018 2.64348 9.26724 2.65062 9.15986 2.68183C7.73439 3.10443 6.42904 3.85808 5.35034 4.88128C5.26962 4.95867 5.20696 5.0529 5.16681 5.15728C5.12667 5.26165 5.11003 5.37358 5.11809 5.48512L5.23028 7.22552L4.48028 8.52456L2.91689 9.29762C2.81627 9.34641 2.72765 9.41678 2.65733 9.50373C2.58701 9.59068 2.53673 9.69206 2.51006 9.80066C2.16331 11.2465 2.16331 12.7537 2.51008 14.1995C2.53674 14.3081 2.58702 14.4095 2.65734 14.4965C2.72765 14.5834 2.81628 14.6538 2.91689 14.7026L4.48022 15.4756L5.23022 16.7747Z" stroke="white" stroke-width="1.5" stroke-miterlimit="10"/>
</svg>
