<svg width="60" height="60" viewBox="0 0 60 60" fill="none" xmlns="http://www.w3.org/2000/svg">
<path d="M15.3254 4.65532C18.4997 3.91883 21.6229 2.66994 24.7593 1.75884C25.9119 1.42405 27.4839 1.37884 27.8 0C26.855 0.0781146 25.9097 0.445727 24.9932 0.680624C22.7414 1.25765 20.5006 1.91562 18.2881 2.63096C17.099 3.01546 15.7109 3.30125 15.3254 4.65532Z" fill="black"/>
<path d="M29.7493 5.9178C28.7816 6.90528 27.8742 8.32791 28.3887 9.78408C28.5668 10.2881 29.2455 11.1267 29.786 10.5548C30.247 10.067 30.295 9.39169 30.2951 8.75833H30.2171L29.9217 9.23081C29.5219 9.77201 29.2157 9.47233 29.0888 8.91614C28.9492 8.30369 29.0556 7.58882 29.3058 7.02245C29.4536 6.6883 29.7838 6.28589 29.7493 5.9178Z" fill="black"/>
<path d="M20.3932 8.60051C19.5195 9.4922 18.7806 10.675 19.0263 11.9934C19.1298 12.5484 19.7806 13.7344 20.4568 13.1517C20.9933 12.6895 21.0169 11.9339 21.0169 11.2832H20.939C20.5778 12.1194 19.9044 12.4126 19.7831 11.2832C19.7254 10.7476 19.787 10.2025 19.9937 9.70516C20.135 9.36524 20.4549 8.97506 20.3932 8.60051Z" fill="black"/>
<path fill-rule="evenodd" clip-rule="evenodd" d="M37.2339 11.6488C35.2373 12.521 34.8497 8.95555 36.2237 8.29023C36.6501 8.08374 37.3918 8.5847 37.7014 8.854C38.66 9.68769 38.4106 11.1346 37.2339 11.6488ZM36.4011 9.54987C35.7899 9.95244 36.4476 11.2173 37.2162 10.6513C37.8578 10.1787 36.9817 9.1675 36.4011 9.54987Z" fill="black"/>
<path d="M14.7799 9.54737C13.8128 10.5267 12.8839 11.949 13.385 13.4137C13.442 13.5804 13.5246 13.7379 13.6278 13.88C14.6894 15.3417 15.325 13.2215 15.3256 12.309H15.2477C15.0488 12.7343 14.8075 13.1108 14.39 13.3347C14.0367 12.4745 13.909 11.7955 14.2236 10.8887C14.3724 10.4599 14.7842 9.99894 14.7799 9.54737Z" fill="black"/>
<path d="M43.9391 15.0706H43.8612C43.3745 16.1903 42.6412 15.8866 42.6179 14.755C42.5984 13.8025 43.1256 13.0661 43.4713 12.2301C42.0515 12.9142 41.1908 15.6374 42.4055 16.8594C43.5272 17.9879 43.9391 15.8324 43.9391 15.0706Z" fill="black"/>
<path d="M15.2737 13.2296C15.2693 13.2339 15.2648 13.3172 15.3003 13.2821C15.3047 13.2778 15.3091 13.1945 15.2737 13.2296Z" fill="black"/>
<path d="M21.1727 17.3588H21.0947C20.6912 16.3648 20.1477 15.2294 19.3014 14.5454C18.4453 13.8533 17.9141 15.0088 18.0955 15.7807C18.3297 16.7765 19.081 16.3823 19.6609 16.8541C20.3757 17.4356 20.714 18.9285 20.7829 19.8048C21.6266 19.3203 21.8076 17.6122 21.8674 16.7276C21.89 16.3941 21.7433 15.5502 22.1966 15.4388C22.5905 15.342 22.8513 15.8809 23.1964 15.9582C23.5393 16.035 23.6535 15.5626 23.6468 15.3073C23.6178 14.2056 22.4012 13.6318 21.6709 14.5217C21.0415 15.2888 21.1727 16.4322 21.1727 17.3588Z" fill="black"/>
<path d="M31.1526 18.6213C30.3374 17.6539 29.7793 16.6765 28.4238 16.4909C28.3139 17.0898 28.2945 18.0338 28.9727 18.3166C29.309 18.4569 29.6058 18.2213 29.909 18.4849C30.5758 19.0645 31.1446 20.0597 31.3865 20.9095C32.2677 20.299 31.6762 18.347 31.8224 17.4377C31.9478 16.6576 32.5 16.5792 32.8678 17.2799H33.0238C33.2134 16.4738 32.5566 15.0606 31.671 16.0486C31.1469 16.6332 31.1587 17.8794 31.1526 18.6213Z" fill="black"/>
<path d="M55.3219 15.7807C55.0923 16.4938 54.5661 17.3192 54.5213 18.0689C54.4965 18.4837 54.8367 18.8274 54.8527 19.2525C54.9489 21.8096 55.0643 24.3539 55.237 26.9062C55.5661 31.7701 56.1538 36.7804 55.9426 41.6611C55.8791 43.1293 55.3584 44.5451 55.244 46.0008H55.3219C56.0988 44.1126 57.014 42.4619 57.3158 40.3987C57.6608 38.0391 57.3599 35.5781 57.2001 33.2184C56.9291 29.2167 56.4941 25.1578 56.4914 21.1462C56.9651 21.6669 57.4004 22.2347 57.8169 22.8032H57.8948C57.4167 20.308 56.1319 18.2007 55.4779 15.7807H55.3219Z" fill="black"/>
<path fill-rule="evenodd" clip-rule="evenodd" d="M44.9904 5.22785C45.1885 4.92113 45.3819 4.62165 45.4984 4.33973H45.6544C45.8241 4.86753 46.0134 5.40175 46.2047 5.9414C46.8466 7.75235 47.5101 9.62437 47.5256 11.52H47.4476C47.0918 11.0469 46.6916 10.6006 46.2781 10.1786C46.2781 12.3653 46.4559 14.5507 46.6336 16.7358C46.7874 18.6267 46.9412 20.5175 46.9798 22.4087C47.0322 22.3555 47.0972 22.2952 47.168 22.2293C47.4683 21.9505 47.8746 21.5732 47.8791 21.2251C47.8816 21.0222 47.7423 20.8319 47.6059 20.6454C47.5157 20.5221 47.4267 20.4006 47.3809 20.2783C47.1618 19.6942 47.4131 18.9762 47.7098 18.4636C48.2487 17.5326 49.2644 17.8662 49.438 18.858C49.5219 19.3373 49.3529 19.7501 49.1825 20.1664C49.0936 20.3835 49.0044 20.6016 48.9504 20.8306C48.8746 21.1519 48.8717 21.5259 48.8688 21.8903C48.8672 22.0962 48.8657 22.2991 48.851 22.4876H48.773L48.4612 21.7774H48.3052C48.1682 22.0559 47.9493 22.2987 47.7313 22.5404C47.4778 22.8217 47.2255 23.1015 47.1048 23.4344C46.9716 23.8016 47.0322 24.2772 47.0855 24.6959C47.0995 24.8064 47.1131 24.913 47.1225 25.0125C47.1965 25.7991 47.1821 26.6702 47.1288 27.4585C47.0489 28.6391 46.6486 29.6958 46.2425 30.7677C46.0941 31.1595 45.9449 31.5534 45.8103 31.956H45.7323C45.7323 30.6878 45.6933 29.4227 45.6542 28.1582C45.6169 26.952 45.5797 25.7463 45.5764 24.5391C44.5145 25.1968 43.4834 25.7226 42.2239 25.7226V25.6437C42.9411 25.3004 43.6315 24.8306 44.2993 24.3762C44.4138 24.2983 44.5276 24.2208 44.6408 24.1445C44.7016 24.1036 44.7729 24.0619 44.848 24.018C45.0838 23.8801 45.356 23.7209 45.4514 23.4967C45.5737 23.2094 45.5206 22.8467 45.4711 22.5088C45.4498 22.3629 45.4291 22.2216 45.4235 22.0931L45.1935 18.3057C45.0958 16.8611 45.0437 15.4135 44.9917 13.966C44.9396 12.5183 44.8876 11.0707 44.7898 9.62627C44.7818 9.50828 44.775 9.38899 44.7681 9.26902C44.7401 8.78085 44.7114 8.28132 44.6016 7.81149C44.5727 7.68794 44.5213 7.55701 44.4687 7.42339C44.3747 7.18416 44.2773 6.93632 44.3 6.70684C44.3477 6.22328 44.675 5.71639 44.9904 5.22785ZM48.2272 18.9369C48.0864 19.433 48.2931 19.8502 48.539 20.2782C48.8985 19.7892 48.8296 19.1493 48.2272 18.9369Z" fill="black"/>
<path fill-rule="evenodd" clip-rule="evenodd" d="M3.39673 28.3264V28.2475C3.69359 28.063 3.99312 27.8797 4.29349 27.6958C5.7601 26.7981 7.24687 25.8881 8.54248 24.7654C8.63287 24.6871 8.73103 24.6058 8.83289 24.5214C9.31184 24.1246 9.87267 23.6599 10.0935 23.1188C10.2063 22.8421 9.98168 22.5336 9.76966 22.2424C9.6507 22.0791 9.53572 21.9212 9.48657 21.7774C9.21267 20.9767 9.6439 19.7334 10.2611 19.1916C10.945 18.5912 11.8588 19.2443 11.9586 20.0416C12.0351 20.654 11.8443 21.1456 11.6501 21.646C11.5266 21.9644 11.4016 22.2864 11.3432 22.6454C11.3025 22.8959 11.3133 23.1499 11.3241 23.4035C11.3404 23.7878 11.3566 24.1709 11.1933 24.5391C11.0503 24.1914 10.8841 23.8836 10.6476 23.5922C9.7338 25.4487 7.6171 26.9293 5.81367 27.7914C5.79732 27.7992 5.78089 27.8071 5.7644 27.815C5.04495 28.1592 4.1958 28.5655 3.39673 28.3264ZM10.7286 20.276C11.4265 20.4372 11.1877 21.4722 10.8815 21.8563L10.5602 21.2251C10.4724 21.0155 10.2307 20.1608 10.7286 20.276Z" fill="black"/>
<path d="M38.1695 20.9884C37.159 22.014 36.2837 23.3259 36.5688 24.8547C36.6721 25.4093 37.336 26.7038 38.0662 26.1484C38.6911 25.673 38.7153 24.7713 38.7153 24.0656H38.6373C38.094 25.228 37.3927 24.9811 37.3282 23.75C37.2761 22.754 38.2501 21.8486 38.1695 20.9884Z" fill="black"/>
<path d="M37.8318 25.0388C37.7971 25.0747 37.8794 25.0702 37.8837 25.0658C37.9184 25.0299 37.836 25.0344 37.8318 25.0388Z" fill="black"/>
<path d="M32.712 28.1686H32.634C32.1423 29.3069 31.3628 29.2028 31.3117 27.9319C31.2707 26.911 31.786 26.1422 32.1662 25.2492C30.7309 25.9408 29.885 28.7098 31.0133 29.98C32.1943 31.3095 32.7119 29.0601 32.712 28.1686Z" fill="black"/>
<path d="M49.1628 25.7226C48.1332 26.7653 46.5663 29.6688 48.5402 30.7272C49.639 31.3164 49.8645 29.2051 49.8645 28.5631H49.7865C49.2471 29.8282 48.5389 29.5005 48.4684 28.2475C48.4192 27.3745 49.2868 26.4765 49.1628 25.7226Z" fill="black"/>
<path d="M59.2982 26.8272C58.2414 27.8974 57.1991 29.6186 57.9727 31.1669C58.0569 31.3354 58.1665 31.4924 58.2991 31.6255C59.5062 32.8367 59.9994 30.5262 59.9999 29.6677H59.9219C59.8514 29.8332 59.779 29.9908 59.6796 30.1415C59.2478 30.7962 58.8046 30.7774 58.6369 29.9833C58.5068 29.3672 58.5956 28.6713 58.816 28.0897C58.9615 27.7056 59.3661 27.2403 59.2982 26.8272Z" fill="black"/>
<path d="M36.2983 32.5083C37.4763 32.0458 39.4522 31.5561 39.5729 30.0623C38.2571 30.4265 36.6217 31.0809 36.2983 32.5083Z" fill="black"/>
<path d="M15.8714 30.1412C15.5699 30.638 14.6027 31.6812 14.6436 32.2685C14.6622 32.5338 14.988 32.7308 15.1697 32.8831C15.7247 33.3483 16.2733 33.8574 16.885 34.2442C17.1491 33.8894 17.7255 32.8809 18.1776 32.8046C18.4003 32.767 18.6751 33.0668 18.8341 33.1909C19.3276 33.5759 19.8634 34.1555 20.4714 34.3231C20.715 33.7958 21.5597 32.9276 21.5391 32.3508C21.5283 32.0474 21.1463 31.8242 20.9392 31.6562C20.3473 31.1757 19.7791 30.6438 19.146 30.2201C18.7557 30.7529 18.2437 31.2702 17.9765 31.8771C17.1809 31.4595 16.603 30.6608 15.8714 30.1412Z" fill="black"/>
<path d="M44.017 31.1669C43.693 31.5738 42.5487 32.607 42.6071 33.1395C42.6566 33.5914 43.3308 34.102 43.6272 34.402C43.8456 34.6232 44.2218 35.1747 44.5628 35.1747C45.1647 35.1747 45.4727 33.9711 46.1221 34.089C46.9083 34.2317 47.4204 35.4783 48.1492 35.8222C48.4618 35.3818 49.4549 34.4736 49.4488 33.9286C49.4426 33.3743 48.212 32.4854 47.8373 32.1142C47.6802 31.9584 47.4657 31.6822 47.2139 31.7466C46.7665 31.8608 46.1466 32.7682 45.8882 33.1395H45.8102C45.3412 32.4454 44.6972 31.6522 44.017 31.1669Z" fill="black"/>
<path d="M11.0374 35.5856H10.9595C10.6878 34.6314 10.0253 33.5422 9.24421 32.934C8.44537 32.3119 8.06466 33.4132 8.16937 34.0864C8.32803 35.107 9.16998 34.6331 9.66444 35.1373C10.3419 35.8279 10.5506 37.0397 10.7256 37.9527C11.3102 37.3208 11.5672 36.2715 11.6479 35.4278C11.6894 34.9941 11.5759 34.3274 11.8192 33.9437C12.2044 33.3362 13.2501 34.9892 13.3585 33.7707C13.4453 32.7954 12.3225 32.0808 11.5978 32.8326C10.9072 33.5491 11.0374 34.6726 11.0374 35.5856Z" fill="black"/>
<path d="M10.9595 35.191V35.5067H11.0374C11.0239 35.3737 11.0127 35.3099 10.9595 35.191Z" fill="black"/>
<path d="M6.20367 35.6645C5.25903 36.6206 4.37997 37.9351 4.78383 39.3729C4.93002 39.8937 5.62571 40.8957 6.22012 40.2855C6.67801 39.8157 6.74904 39.0454 6.74943 38.4261H6.67146C6.14418 39.5475 5.51328 39.2362 5.45333 38.1105C5.40436 37.192 6.21162 36.4786 6.20367 35.6645Z" fill="black"/>
<path d="M12.9087 46.0008C13.1038 45.6484 13.2358 45.2182 13.0847 44.8173C12.9477 44.454 12.3766 44.1251 12.8368 43.768C13.378 43.3482 14.2927 43.2027 14.9358 43.0005C16.4183 42.5343 17.9071 42.0791 19.3799 41.5822C20.5231 41.1965 21.707 40.8781 21.7188 39.4518C20.3303 39.7016 18.9287 40.6101 17.5866 41.0817C15.983 41.6451 13.9768 41.8734 12.5189 42.7603C11.0901 43.6294 11.4932 45.3945 12.9087 46.0008Z" fill="black"/>
<path fill-rule="evenodd" clip-rule="evenodd" d="M3.39675 21.7774V21.6985C2.65482 21.1406 2.74503 20.2298 2.93909 19.4103C3.34365 17.7018 4.37327 16.2277 5.58011 14.9917C5.68599 14.8832 5.82724 14.7606 5.97977 14.6282C6.39643 14.2666 6.89718 13.8319 6.99066 13.4136C7.03367 13.2213 6.99446 12.9836 6.95612 12.7513C6.93058 12.5965 6.90543 12.4441 6.90521 12.309C6.90373 11.3639 7.12601 10.548 7.70351 9.78437C8.63004 8.55915 10.3865 7.96312 11.9233 7.44164C12.2956 7.31531 12.655 7.19334 12.9866 7.06787C17.8654 5.22169 23.0882 3.92703 28.1899 2.88787C30.0853 2.50188 31.9638 2.17979 33.8814 1.95002C34.7275 1.84871 35.8911 1.76413 36.6069 2.33223C37.4388 2.9925 37.2616 4.17235 36.9459 5.04983C36.2287 7.04262 34.5698 8.62811 33.0238 9.98731C32.3058 10.6185 31.6476 11.321 30.9907 12.0221C30.335 12.7219 29.6807 13.4202 28.9696 14.0449C29.4626 11.6338 31.2055 10.1084 32.9571 8.57516C33.1618 8.396 33.3666 8.21674 33.5696 8.03594C33.6899 7.92875 33.8506 7.80229 34.0303 7.6609C34.7743 7.07537 35.8437 6.23378 35.7188 5.44435C35.5829 4.58541 34.635 4.21961 33.8814 4.18497C32.2137 4.10839 30.6015 4.43507 28.9766 4.76434C28.9223 4.77535 28.868 4.78635 28.8136 4.79734C22.9337 5.98729 16.9558 7.58027 11.3493 9.7386C10.7095 9.98491 10.0983 10.2854 9.48731 10.5859C8.99534 10.8278 8.50345 11.0697 7.99674 11.2832C9.74484 13.2915 11.9867 14.9636 14.1846 16.603C15.1333 17.3105 16.0738 18.012 16.9628 18.7317L19.3018 20.6533C19.3825 20.7213 19.4708 20.8065 19.5644 20.8969C19.8269 21.1504 20.1313 21.4442 20.4264 21.5113C20.8009 21.5966 21.3453 21.3927 21.8336 21.2098C22.0789 21.118 22.3101 21.0314 22.4984 20.9895C23.5998 20.7442 24.7276 20.7476 25.851 20.7509H25.8512C25.9811 20.7513 26.111 20.7517 26.2408 20.7517C25.1673 18.8833 25.1356 16.7587 25.1043 14.6602V14.66C25.0968 14.1629 25.0894 13.6673 25.0682 13.1769C25.0549 12.8705 24.977 12.5161 24.898 12.1568C24.7868 11.6515 24.6735 11.1364 24.7348 10.7309C24.8059 10.2592 25.1759 9.73571 25.5045 9.27068L25.5047 9.27041C25.6332 9.08857 25.7554 8.91568 25.8509 8.75831H25.9289C25.9742 8.85622 26.0201 8.95509 26.0664 9.05485L26.0666 9.05536C26.7724 10.5756 27.5735 12.3012 27.6441 13.9659C27.447 13.8254 27.2727 13.659 27.0984 13.4925C26.9241 13.3261 26.7498 13.1597 26.5526 13.0191C26.5526 15.1348 26.555 17.2147 27.4711 19.1736C27.9233 20.1402 28.6078 21.0276 29.3606 21.7743C29.4714 21.8843 29.6134 21.9965 29.7614 22.1134C30.0837 22.3681 30.4351 22.6457 30.5587 22.9744C30.7674 23.5298 30.5678 24.37 30.3933 25.1039C30.3185 25.4189 30.2483 25.7144 30.217 25.9593C29.8317 25.6839 29.5061 25.336 29.179 24.9866C28.8464 24.6313 28.5122 24.2743 28.1119 23.99C26.7281 23.0071 24.2773 22.7565 22.7323 23.5133C23.4324 23.8804 24.0759 24.5136 24.6785 25.1065C24.8652 25.2902 25.0479 25.4701 25.2272 25.6369C26.9941 27.2813 28.7016 29.0135 30.273 30.8513C30.4996 31.1163 30.7181 31.3846 30.935 31.6508L30.9351 31.6509C31.913 32.8514 32.8568 34.0099 34.3492 34.6387C34.3492 33.1665 34.2596 31.6905 34.1702 30.2165L34.1702 30.2164L34.1701 30.2162C34.1223 29.4275 34.0744 28.6395 34.0404 27.853C33.9954 26.8134 33.975 25.7704 33.9546 24.727V24.7269C33.9256 23.2418 33.8965 21.7559 33.7965 20.2782C33.7477 19.5562 33.7331 18.832 33.7185 18.1078V18.1076C33.7039 17.3838 33.6894 16.66 33.6406 15.9385C33.6252 15.7111 33.5651 15.4467 33.5036 15.1759C33.4065 14.7485 33.3058 14.3052 33.3714 13.9659C33.4604 13.505 33.7755 13.0401 34.0759 12.5969C34.235 12.362 34.3901 12.1333 34.5051 11.9145H34.6611C34.8678 12.5562 35.1085 13.1878 35.3489 13.8183C35.9809 15.4765 36.6102 17.1274 36.6102 18.9369C36.2547 18.6617 35.9666 18.2958 35.6807 17.9326C35.5256 17.7356 35.3711 17.5393 35.2068 17.3588C35.2068 20.4272 35.4026 23.4889 35.5982 26.5489C35.7807 29.4033 35.9631 32.2563 35.9865 35.1121C36.1199 35.1179 36.2501 35.1263 36.3785 35.1346L36.3787 35.1346C36.8477 35.1647 37.2926 35.1933 37.7797 35.0896C38.5904 34.9168 39.6918 34.4647 40.1078 33.6919C40.4674 33.0236 40.3276 31.8459 40.235 31.0662C40.2294 31.0194 40.2241 30.974 40.219 30.9302C40.062 29.5845 40.0413 28.1038 40.0407 26.7483C40.04 25.0908 39.9115 23.4162 39.7839 21.7523C39.7401 21.1804 39.6963 20.6098 39.6578 20.0415C39.5521 18.4783 39.4845 16.9121 39.4169 15.346L39.4169 15.3457C39.3494 13.78 39.2819 12.2145 39.1762 10.652C39.1146 9.74196 39.099 8.82859 39.0833 7.91522C39.0711 7.19629 39.0588 6.47732 39.0241 5.75997C39.0143 5.55892 38.924 5.35244 38.8344 5.14778C38.725 4.89758 38.6167 4.65011 38.6583 4.4186C38.7598 3.85326 39.1934 3.14271 39.5499 2.55857L39.55 2.55848C39.6433 2.40548 39.7314 2.26116 39.8068 2.1304C40.0558 2.52893 40.2178 3.00552 40.3763 3.47183C40.4496 3.68728 40.5221 3.9006 40.6021 4.10299C41.3457 5.98468 41.8598 7.7223 42.2238 9.70515H42.1458C42.0943 9.62077 42.0422 9.53403 41.9891 9.44581C41.6303 8.84943 41.2312 8.18587 40.7424 7.73256C40.7715 11.2824 41.0108 14.8295 41.2502 18.3772L41.2502 18.3773C41.5271 22.4802 41.804 26.5839 41.7557 30.6935C41.7231 33.4676 40.9941 36.4705 38.0916 37.4383C37.4419 37.6549 36.7464 37.7652 36.0645 37.7949C36.0645 37.909 36.0646 38.0246 36.0647 38.1418L36.0647 38.1463C36.0683 41.5309 36.0731 46.1275 33.2577 48.4469C34.3484 45.792 34.5831 43.4924 34.5831 40.6354C34.5831 40.4247 34.5953 40.1814 34.6083 39.9232C34.6459 39.1714 34.69 38.293 34.4581 37.7245C34.3516 37.4633 33.9933 37.3016 33.6797 37.16L33.6796 37.1599C33.5505 37.1016 33.4289 37.0467 33.3357 36.9897C32.5221 36.4926 31.7504 35.8742 31.0879 35.184C30.2661 34.3279 29.5166 33.4066 28.7671 32.4853C28.1201 31.69 27.4731 30.8947 26.7795 30.1412C26.0116 29.3069 25.1783 28.5473 24.3446 27.7874C23.8549 27.3411 23.365 26.8946 22.8882 26.4327C23.1652 26.8828 23.4742 27.3171 23.7837 27.752L23.7838 27.7521C24.4257 28.6542 25.0697 29.5591 25.4342 30.6146C26.0271 32.3311 26.0635 34.9178 24.6679 36.272C23.9275 36.9904 22.8451 37.3314 21.8747 37.5874C21.2018 37.7649 20.5237 37.9318 19.8447 38.0989L19.8443 38.099C17.3715 38.7076 14.8863 39.3191 12.5967 40.4583C12.4739 40.5194 12.3435 40.5825 12.2082 40.6479L12.2076 40.6482C11.2887 41.0923 10.1438 41.6456 9.61087 42.4505C8.9915 43.3857 9.02573 45.1765 9.18767 46.2375C9.71082 49.6656 13.1002 51.1296 16.1832 51.1296C16.2877 51.1296 16.4128 51.1327 16.5518 51.1362C17.3441 51.1562 18.5869 51.1876 19.0281 50.7103C19.201 50.5233 19.2865 50.2332 19.3666 49.9613C19.4011 49.8444 19.4346 49.7309 19.4736 49.6304C19.7584 48.8961 20.0821 48.1754 20.4872 47.5C20.5363 47.4182 20.6131 47.3204 20.6966 47.2142C20.9017 46.9532 21.1463 46.6419 21.1143 46.3954C21.0785 46.1184 20.7832 45.8409 20.4856 45.5614C20.1141 45.2125 19.7392 44.8603 19.8613 44.5017C19.9959 44.1062 20.9268 43.1373 21.3286 43.0296C21.4666 42.9927 21.5721 43.0396 21.6772 43.0863C21.8039 43.1427 21.93 43.1988 22.1116 43.1068C23.2886 42.5106 24.5264 41.5031 25.359 40.4776C25.6868 40.0738 25.5066 39.7864 25.3035 39.4625C25.1969 39.2923 25.0839 39.112 25.0349 38.8995C24.9096 38.3566 25.1679 37.7052 25.4362 37.2428C25.9415 36.3719 26.9875 36.6895 27.1506 37.637C27.2363 38.1348 27.0641 38.5598 26.8904 38.9888C26.7979 39.2171 26.705 39.4465 26.6502 39.6885C26.5775 40.0095 26.5743 40.3801 26.5711 40.742V40.742C26.5693 40.9498 26.5675 41.1546 26.5526 41.3455H26.4747C26.4441 41.2712 26.4122 41.1979 26.3804 41.1248C26.2994 40.9387 26.219 40.7539 26.1628 40.5565H26.0069C25.4236 41.9509 23.6958 43.2972 22.3425 43.8704C22.4049 43.9364 22.4871 44.0147 22.5779 44.1011L22.5781 44.1013C22.8968 44.4046 23.3208 44.8081 23.3625 45.1329C23.4063 45.4747 22.9424 45.9831 22.5927 46.3665C22.47 46.5009 22.3614 46.6199 22.2937 46.711C21.3966 47.9164 20.6959 49.1698 20.1594 50.5773C23.034 49.9752 25.9683 48.5273 28.4238 46.9305C28.4946 46.8844 28.5721 46.8352 28.6543 46.783L28.6549 46.7826L28.6554 46.7823C29.4197 46.2969 30.5945 45.5508 30.6609 44.6595C30.7079 44.0289 30.3014 43.2347 29.9441 42.5367C29.7967 42.2487 29.6577 41.9771 29.5623 41.74C29.1951 40.827 28.9765 39.916 28.7552 38.9933C28.6537 38.5704 28.5517 38.1451 28.4345 37.716C28.3915 37.5585 28.2855 37.4314 28.1811 37.3062C28.0625 37.1639 27.9459 37.0241 27.9262 36.8449C27.8615 36.2549 28.2339 35.2952 28.4856 34.6464C28.5197 34.5587 28.5515 34.4767 28.5797 34.402C29.769 35.3817 31.1671 37.3127 31.7763 38.7417C31.4356 38.66 31.1079 38.5308 30.7804 38.4017C30.5933 38.3279 30.4063 38.2542 30.217 38.1894C30.2352 39.0756 30.6292 39.922 31.0104 40.7409C31.1424 41.0244 31.2729 41.3047 31.3857 41.5822C31.7944 42.5878 31.9498 43.5758 31.841 44.6595C31.6443 46.6195 30.4321 47.8025 28.8916 48.8414C26.2286 50.6372 22.8354 52.5049 19.6137 52.9444C19.6134 55.0266 19.8248 58.2655 22.8103 57.7209C23.9426 57.5143 24.8277 56.727 25.6646 55.9826L25.718 55.9351C25.7363 55.9188 25.7547 55.9025 25.773 55.8863C26.5586 55.1889 27.2749 54.4263 27.9912 53.6639C28.9172 52.6781 29.8431 51.6925 30.9187 50.8475C33.5552 48.7763 36.6339 47.846 39.7467 46.9053C40.5465 46.6636 41.3485 46.4212 42.1458 46.1586C41.5551 44.0365 41.1506 41.3951 42.2481 39.3729C42.8494 38.2649 43.8646 37.3447 45.1865 37.5841C46.0728 37.7447 46.6228 38.6761 46.9326 39.4518C47.6772 41.3162 47.5219 43.8315 46.4261 45.5274C46.0779 46.0662 45.6284 46.5183 45.1085 46.8868C45.0582 46.9225 44.9945 46.9591 44.9263 46.9983C44.7078 47.1239 44.4433 47.276 44.4265 47.5073C44.3779 48.1766 45.4814 48.9865 45.9661 49.2773C47.5066 50.2017 50.7274 49.9287 51.3823 47.8945C51.5414 47.4004 51.5011 46.9085 51.4605 46.4121L51.4605 46.4119C51.445 46.2231 51.4295 46.0336 51.4249 45.843L51.2648 41.74C51.1469 39.0169 50.993 36.2948 50.839 33.5726L50.8389 33.572C50.685 30.8507 50.531 28.1294 50.4132 25.407C50.3724 24.4641 50.3601 23.5133 50.3477 22.5611L50.3477 22.56V22.5599C50.3275 21.0044 50.3073 19.4454 50.163 17.9111C50.0624 16.8406 50.0537 15.7589 50.045 14.6787V14.6775C50.0405 14.1237 50.036 13.5703 50.0192 13.0191C50.0127 12.808 49.9146 12.6047 49.8179 12.4043C49.7004 12.1608 49.5849 11.9216 49.6383 11.6777C49.7732 11.0606 50.3562 9.65647 50.878 9.31063C51.112 10.3099 51.4843 11.2609 51.856 12.2104L51.8561 12.2105C52.425 13.6636 52.9926 15.1134 53.061 16.7276H52.9831C52.649 16.1203 52.2427 15.3831 51.7356 14.9128C51.9641 16.1585 51.9356 17.5314 51.908 18.8614V18.8617C51.8968 19.3972 51.8859 19.9256 51.8919 20.436C51.9254 23.2881 52.0178 26.1903 52.2103 29.0365C52.4251 32.2094 52.5611 35.3877 52.6972 38.5656L52.6972 38.5662C52.7155 38.9929 52.7337 39.4196 52.7522 39.8464C52.7608 40.0459 52.7699 40.2462 52.779 40.4473V40.4474C52.8897 42.8921 53.005 45.4377 52.4 47.8156C52.021 49.3053 51.2565 50.9021 49.8644 51.6563C47.0684 53.1712 43.2336 51.3115 42.7695 48.1312L36.9221 50.1565C36.696 50.2327 36.469 50.3062 36.2422 50.3796L36.2415 50.3798L36.2406 50.3801C35.0572 50.763 33.8786 51.1444 32.8679 51.9103C31.1543 53.2089 29.5284 54.7091 28.0351 56.2583C27.8436 56.457 27.6543 56.6613 27.4643 56.8663C26.4998 57.9072 25.5169 58.968 24.1357 59.4122C21.8984 60.1319 19.5995 58.5541 18.841 56.4161C18.5128 55.4909 18.5169 54.5483 18.5212 53.5869C18.5217 53.4782 18.5221 53.3692 18.5221 53.26C18.0239 53.2816 17.5302 53.3333 17.0371 53.3849C16.1351 53.4794 15.2349 53.5737 14.312 53.4833C11.4723 53.2052 8.82863 51.4434 8.20428 48.5258C7.9519 47.3462 8.01997 46.1909 8.08864 45.0252C8.12042 44.4858 8.15232 43.9442 8.15267 43.397L8.1226 43.4275C7.43533 44.1231 6.63758 44.9305 5.65776 45.1581C3.37406 45.6885 1.33026 43.486 1.00288 41.3455C0.556919 38.429 1.94113 35.9585 3.47471 33.613C2.8959 33.4467 2.33002 33.2728 1.83743 32.9086C-1.22024 30.6476 0.0796106 26.2516 1.83938 23.6711C1.88586 23.603 1.93292 23.5333 1.98066 23.4625L1.98079 23.4624C2.38449 22.8645 2.83695 22.1944 3.39675 21.7774ZM4.72731 18.0689C5.30621 16.5253 6.37286 15.3225 7.52894 14.2027C8.16583 14.6058 8.72162 15.1731 9.26657 15.7293C9.49319 15.9606 9.71795 16.1901 9.94588 16.4049L14.4679 20.6697C14.7042 20.8983 14.9848 21.1304 15.2751 21.3705C15.9649 21.941 16.7089 22.5563 17.0408 23.2766C14.8954 24.4854 12.9372 26.0406 11.0006 27.5786L11.0002 27.5789L10.9979 27.5807C10.5948 27.9009 10.1927 28.2202 9.78995 28.5356C9.63189 28.6594 9.4732 28.7849 9.31364 28.9111C8.10342 29.8682 6.84294 30.8651 5.42386 31.4468C4.96277 31.6359 4.44157 31.8329 3.94251 31.87C1.12919 32.0788 0.661003 29.2387 1.34983 27.064C1.82963 25.5492 2.8039 23.3646 3.97876 22.2759C4.15382 22.1137 4.39675 22.044 4.64381 21.973C4.86351 21.91 5.08649 21.846 5.26793 21.7152C6.25014 21.0068 6.76846 19.8422 7.06115 18.7002C6.95627 18.8063 6.84857 18.9244 6.73733 19.0464C6.33332 19.4894 5.88215 19.9841 5.3459 20.1478C4.13867 20.5166 4.50706 18.6561 4.72731 18.0689ZM18.6001 24.9166C18.3503 24.9492 18.1014 25.1069 17.8681 25.2548C17.7712 25.3162 17.677 25.3759 17.5865 25.4243C16.7444 25.8742 15.9454 26.3694 15.1696 26.9291C14.1181 27.6877 13.0983 28.4907 12.0784 29.2938C10.6433 30.4237 9.2081 31.5538 7.68488 32.5601C7.08353 32.9573 6.41746 33.3662 5.73573 33.605C5.58413 33.6581 5.3996 33.6747 5.21375 33.6915C4.96145 33.7143 4.70671 33.7373 4.52866 33.8519C4.20276 34.0616 3.9454 34.5555 3.72217 34.9838C3.63662 35.148 3.55608 35.3025 3.47862 35.4277C2.40619 37.1617 1.83829 39.0617 2.07531 41.1088C2.21463 42.3126 2.94151 43.4563 4.25438 43.3939C5.03614 43.3566 5.74547 42.8505 6.35946 42.4045C6.95733 41.9701 7.52616 41.4959 8.09509 41.0216L8.09526 41.0215C8.65101 40.5582 9.20685 40.0948 9.78996 39.6684C12.4528 37.7213 15.6491 36.9224 18.796 36.1358C19.0691 36.0676 19.3417 35.9994 19.6137 35.9306C19.9025 35.8575 20.2281 35.7891 20.5726 35.7166C21.9992 35.4167 23.7511 35.0484 24.5696 34.0001C25.0453 33.3911 24.5947 32.5065 24.2778 31.8843C24.2485 31.8269 24.2204 31.7718 24.1943 31.7193C23.242 29.8054 21.8855 28.0248 20.3933 26.5116C20.2967 26.4136 20.1744 26.2602 20.0359 26.0863C19.6196 25.5639 19.0564 24.8572 18.6001 24.9166ZM46.0503 43.7912C45.6267 44.5956 44.4647 45.2043 43.6272 45.4485C43.3545 44.8074 43.1853 44.0784 43.0365 43.397C42.8162 42.3877 42.5291 39.0833 44.5628 39.9432C45.6505 40.4033 46.6323 42.6863 46.0503 43.7912Z" fill="black"/>
<path d="M37.8578 43.1603C37.5834 43.659 37.2363 44.1037 37.0781 44.6595C37.8165 44.2434 38.4707 43.7241 39.2612 43.3982C39.5568 43.2763 40.1586 43.2357 40.3505 42.962C40.5074 42.7383 40.4307 42.3161 40.4307 42.0556C39.9512 42.1498 39.2569 42.5514 38.7934 42.4897C38.5567 42.4581 37.6965 41.8974 38.0552 41.6104C38.3274 41.3925 38.8437 41.7109 39.1052 41.8189C39.4462 41.2029 39.2744 40.4159 38.4035 40.676C37.434 40.9656 36.8377 42.6114 37.8578 43.1603Z" fill="black"/>
<path d="M49.5524 41.74C48.5354 42.7694 46.7616 45.873 48.9299 46.8574C49.9943 47.3406 50.1762 45.2631 50.1762 44.6595H50.0982C49.5369 45.9756 48.8136 45.5226 48.7828 44.2649C48.7617 43.4006 49.6584 42.475 49.5524 41.74Z" fill="black"/>
<path d="M26.1083 42.6134C24.7578 43.3365 25.1743 46.934 27.1762 45.966C28.3251 45.4105 28.599 43.9525 27.563 43.1417C27.2618 42.9059 26.5018 42.4026 26.1083 42.6134Z" fill="black"/>
<path d="M16.5729 47.7367H16.4949C16.0957 46.7663 15.5579 45.6953 14.7005 45.0586C13.9676 44.5144 13.5063 45.6073 13.6517 46.2375C13.8807 47.2301 14.5765 46.7745 15.1283 47.232C15.7903 47.7809 16.1186 49.2046 16.1831 50.0249C16.9698 49.573 17.1337 48.0107 17.1896 47.1844C17.2107 46.8727 17.1028 46.1051 17.464 45.9418C17.8383 45.7727 18.1513 46.4262 18.5135 46.4241C18.8275 46.4224 18.84 45.9891 18.8302 45.7641C18.788 44.7881 17.671 44.2553 17.0124 45.0686C16.4191 45.8014 16.5729 46.8591 16.5729 47.7367Z" fill="black"/>
<path d="M6.59349 45.6852C5.85609 46.4478 5.12103 47.9195 5.93531 48.9117C6.74108 49.8935 7.20451 48.2811 7.21722 47.6578H7.13926C6.30939 49.1095 6.09373 47.1543 6.39492 46.3954C6.49027 46.1552 6.63606 45.944 6.59349 45.6852Z" fill="black"/>
<path d="M43.939 52.3131C43.0124 53.2509 42.2448 54.3859 42.3932 55.7849C42.4575 56.3909 43.1151 57.8884 43.9308 57.3153C44.5471 56.8823 44.6388 55.839 44.6407 55.1536H44.5627L44.3005 55.6275C43.8927 56.2367 43.4644 56.2311 43.2904 55.4693C43.1426 54.8222 43.2459 54.109 43.4763 53.4967C43.6147 53.1287 44.003 52.7096 43.939 52.3131Z" fill="black"/>
<path d="M38.7153 56.7317C37.8583 55.8662 37.7361 54.4669 36.6102 53.7543C35.6684 53.1581 35.3309 54.8554 35.6816 55.4689C36.0665 56.1424 36.6535 55.765 37.1256 56.1481C37.9238 56.7958 38.1442 58.3107 38.3255 59.2566C39.0003 58.4706 39.2901 57.2798 39.336 56.2583C39.3509 55.9241 39.2717 54.9563 39.6068 54.7696C40.0912 54.4995 40.4237 55.4924 40.8806 55.2976C41.233 55.1472 41.1574 54.4894 41.0566 54.2068C40.699 53.2044 39.6648 53.1317 39.0778 53.9704C38.6002 54.6527 38.4852 55.9439 38.7153 56.7317Z" fill="black"/>
<path d="M16.4171 54.2068C15.6756 54.9736 14.7807 56.728 15.888 57.627C16.7093 58.2938 16.9626 56.7777 16.9629 56.2583H16.8849C16.7343 56.5777 16.5706 56.7981 16.2612 56.9684C16.0313 56.3974 15.9135 55.9249 16.0674 55.3114C16.1585 54.9485 16.4786 54.5802 16.4171 54.2068Z" fill="black"/>
<path d="M31.7764 54.838C30.8136 55.8126 30.0753 56.9426 30.2307 58.3887C30.2934 58.9725 30.9958 60.4727 31.762 59.8525C32.3733 59.3576 32.4473 58.4057 32.4781 57.6786H32.4002L32.138 58.1524C31.7034 58.8019 31.3019 58.7829 31.114 57.9942C30.9678 57.3802 31.0401 56.6874 31.2669 56.1005C31.4139 55.7197 31.8352 55.2459 31.7764 54.838Z" fill="black"/>
</svg>
