<svg width="87" height="100" viewBox="0 0 87 100" fill="none" xmlns="http://www.w3.org/2000/svg">
<path fill-rule="evenodd" clip-rule="evenodd" d="M40.4013 98.8262L26.8018 85.6003C27.6006 85.2533 28.3993 84.9064 29.1287 84.5579C40.9697 78.9327 46.8385 70.737 48.6796 63.7579L47.3597 63.411C48.9912 62.4395 52.4637 60.216 55.486 57.1952C58.3488 54.3324 60.4143 50.8318 61.3445 49.1398C61.4153 49.0099 61.5512 48.9316 61.6988 48.9316H74.0979C74.9306 48.9316 75.626 48.2362 75.626 47.4035C75.626 46.5708 74.9306 45.8754 74.0979 45.8754H12.3564C11.5237 45.8754 10.8283 46.5708 10.8283 47.4035C10.8283 48.2362 11.5237 48.9316 12.3564 48.9316H25.479C25.5926 48.9316 25.7004 48.9774 25.7757 49.0615C27.3688 50.8022 30.9078 55.36 31.2474 56.8497C31.6298 58.4118 31.6298 58.5506 31.7331 59.3154L29.1287 58.6214C28.5042 60.9129 26.0031 63.6221 20.5166 66.2605C18.2237 67.3353 15.4938 68.2876 12.2855 68.9963C11.0734 69.265 9.81841 68.8088 9.04329 67.8388C-4.11174 51.3899 -2.91434 27.4081 12.634 12.2968C29.4757 -4.09304 57.0126 -4.09304 73.8189 12.2614L73.8543 12.2968C90.696 28.6528 90.6605 55.4249 73.8543 71.8163L46.0531 98.8292C44.4792 100.357 41.9752 100.357 40.4028 98.8277L40.4013 98.8262ZM50.819 48.9301C51.1851 48.9301 51.3667 49.3775 51.101 49.6285C49.1979 51.4282 45.2838 53.8968 41.3167 53.8968C37.3229 53.8968 34.7081 51.4666 33.2288 49.5871C33.0191 49.3214 33.211 48.9316 33.5506 48.9316H50.819V48.9301ZM46.7071 14.9795C61.1437 16.6641 72.3631 28.8654 72.5668 43.6932C72.5698 43.9191 72.3852 44.1051 72.1593 44.1051H43.2272H14.295C14.0691 44.1051 13.883 43.9191 13.8875 43.6932C14.0912 28.8329 25.3431 16.6317 39.8137 14.9781C40.4913 14.9013 41.0051 14.3329 41.0051 13.6507C41.0051 12.7132 39.8594 11.7757 39.5464 11.1511C39.1995 10.5606 39.5818 9.72786 40.3112 9.72786H43.2626H46.214C46.9433 9.72786 47.3258 10.5606 46.9773 11.1511C46.6658 11.7757 45.5186 12.7132 45.5186 13.6507V13.6537C45.5186 14.3343 46.0309 14.9013 46.7071 14.981V14.9795Z" fill="#6943BA"/>
</svg>
