<svg width="88" height="101" viewBox="0 0 88 101" fill="none" xmlns="http://www.w3.org/2000/svg">
<path fill-rule="evenodd" clip-rule="evenodd" d="M41.0624 99.736L27.4629 86.5101C28.2617 86.1632 29.0604 85.8162 29.7898 85.4678C41.6308 79.8426 47.4996 71.6469 49.3407 64.6678L48.0208 64.3208C49.6522 63.3493 53.1248 61.1258 56.1471 58.105C59.0099 55.2422 61.0754 51.7416 62.0055 50.0496C62.0764 49.9197 62.2123 49.8414 62.3599 49.8414H74.759C75.5917 49.8414 76.2871 49.146 76.2871 48.3133C76.2871 47.4806 75.5917 46.7852 74.759 46.7852H13.0175C12.1848 46.7852 11.4894 47.4806 11.4894 48.3133C11.4894 49.146 12.1848 49.8414 13.0175 49.8414H26.14C26.2537 49.8414 26.3615 49.8872 26.4368 49.9714C28.0299 51.7121 31.5689 56.2698 31.9085 57.7595C32.2909 59.3216 32.2909 59.4604 32.3942 60.2252L29.7898 59.5313C29.1652 61.8227 26.6641 64.5319 21.1777 67.1703C18.8848 68.2452 16.1549 69.1975 12.9466 69.9062C11.7344 70.1749 10.4795 69.7187 9.70436 68.7486C-3.45067 52.2997 -2.25327 28.318 13.2951 13.2067C30.1367 -3.1832 57.6737 -3.1832 74.4799 13.1713L74.5154 13.2067C91.357 29.5626 91.3216 56.3348 74.5154 72.7262L46.7141 99.739C45.1403 101.267 42.6362 101.267 41.0638 99.7375L41.0624 99.736ZM51.48 49.84C51.8462 49.84 52.0278 50.2873 51.7621 50.5383C49.8589 52.3381 45.9449 54.8067 41.9777 54.8067C37.984 54.8067 35.3692 52.3765 33.8898 50.497C33.6802 50.2312 33.8721 49.8414 34.2117 49.8414H51.48V49.84ZM47.3682 15.8894C61.8048 17.574 73.0242 29.7752 73.2279 44.603C73.2309 44.8289 73.0463 45.015 72.8204 45.015H43.8882H14.956C14.7301 45.015 14.5441 44.8289 14.5485 44.603C14.7523 29.7427 26.0042 17.5415 40.4747 15.8879C41.1524 15.8111 41.6662 15.2427 41.6662 14.5606C41.6662 13.623 40.5205 12.6855 40.2075 12.061C39.8605 11.4704 40.2429 10.6377 40.9723 10.6377H43.9237H46.875C47.6044 10.6377 47.9868 11.4704 47.6384 12.061C47.3269 12.6855 46.1797 13.623 46.1797 14.5606V14.5635C46.1797 15.2442 46.692 15.8111 47.3682 15.8908V15.8894Z" fill="white"/>
</svg>
